<mxfile host="app.diagrams.net" modified="2023-06-08T15:12:00.455Z" agent="Mozilla/5.0 (Windows NT 10.0; Win64; x64) AppleWebKit/537.36 (KHTML, like Gecko) Chrome/114.0.0.0 Safari/537.36" etag="lByIZqr1igsrcXXHR-Il" version="21.3.7" type="github">
  <diagram name="Page-1" id="2YBvvXClWsGukQMizWep">
    <mxGraphModel dx="2924" dy="1148" grid="1" gridSize="10" guides="1" tooltips="1" connect="1" arrows="1" fold="1" page="1" pageScale="1" pageWidth="850" pageHeight="1100" math="0" shadow="0">
      <root>
        <mxCell id="0" />
        <mxCell id="1" parent="0" />
        <mxCell id="aM9ryv3xv72pqoxQDRHE-5" value="&lt;font style=&quot;font-size: 14px;&quot;&gt;&lt;b&gt;Moodle Plugin&lt;/b&gt;&lt;/font&gt;" style="shape=umlLifeline;perimeter=lifelinePerimeter;whiteSpace=wrap;html=1;container=0;dropTarget=0;collapsible=0;recursiveResize=0;outlineConnect=0;portConstraint=eastwest;newEdgeStyle={&quot;edgeStyle&quot;:&quot;elbowEdgeStyle&quot;,&quot;elbow&quot;:&quot;vertical&quot;,&quot;curved&quot;:0,&quot;rounded&quot;:0};" parent="1" vertex="1">
          <mxGeometry x="-500" y="140" width="100" height="420" as="geometry" />
        </mxCell>
        <mxCell id="aM9ryv3xv72pqoxQDRHE-6" value="" style="html=1;points=[];perimeter=orthogonalPerimeter;outlineConnect=0;targetShapes=umlLifeline;portConstraint=eastwest;newEdgeStyle={&quot;edgeStyle&quot;:&quot;elbowEdgeStyle&quot;,&quot;elbow&quot;:&quot;vertical&quot;,&quot;curved&quot;:0,&quot;rounded&quot;:0};" parent="aM9ryv3xv72pqoxQDRHE-5" vertex="1">
          <mxGeometry x="45" y="80" width="10" height="40" as="geometry" />
        </mxCell>
        <mxCell id="nT646OI-ueqToEDPWVYZ-11" value="&lt;font style=&quot;font-size: 14px;&quot;&gt;&lt;b&gt;Moodle&#39;s SSI Agent&lt;/b&gt;&lt;/font&gt;" style="shape=umlLifeline;perimeter=lifelinePerimeter;whiteSpace=wrap;html=1;container=0;dropTarget=0;collapsible=0;recursiveResize=0;outlineConnect=0;portConstraint=eastwest;newEdgeStyle={&quot;edgeStyle&quot;:&quot;elbowEdgeStyle&quot;,&quot;elbow&quot;:&quot;vertical&quot;,&quot;curved&quot;:0,&quot;rounded&quot;:0};" vertex="1" parent="1">
          <mxGeometry x="-280" y="140" width="100" height="420" as="geometry" />
        </mxCell>
        <mxCell id="nT646OI-ueqToEDPWVYZ-12" value="" style="html=1;points=[];perimeter=orthogonalPerimeter;outlineConnect=0;targetShapes=umlLifeline;portConstraint=eastwest;newEdgeStyle={&quot;edgeStyle&quot;:&quot;elbowEdgeStyle&quot;,&quot;elbow&quot;:&quot;vertical&quot;,&quot;curved&quot;:0,&quot;rounded&quot;:0};" vertex="1" parent="nT646OI-ueqToEDPWVYZ-11">
          <mxGeometry x="45" y="100" width="10" height="160" as="geometry" />
        </mxCell>
        <mxCell id="nT646OI-ueqToEDPWVYZ-13" value="&lt;font style=&quot;font-size: 14px;&quot;&gt;&lt;b&gt;Student&lt;/b&gt;&lt;/font&gt;" style="shape=umlLifeline;perimeter=lifelinePerimeter;whiteSpace=wrap;html=1;container=0;dropTarget=0;collapsible=0;recursiveResize=0;outlineConnect=0;portConstraint=eastwest;newEdgeStyle={&quot;edgeStyle&quot;:&quot;elbowEdgeStyle&quot;,&quot;elbow&quot;:&quot;vertical&quot;,&quot;curved&quot;:0,&quot;rounded&quot;:0};" vertex="1" parent="1">
          <mxGeometry x="-60" y="140" width="100" height="420" as="geometry" />
        </mxCell>
        <mxCell id="nT646OI-ueqToEDPWVYZ-14" value="" style="html=1;points=[];perimeter=orthogonalPerimeter;outlineConnect=0;targetShapes=umlLifeline;portConstraint=eastwest;newEdgeStyle={&quot;edgeStyle&quot;:&quot;elbowEdgeStyle&quot;,&quot;elbow&quot;:&quot;vertical&quot;,&quot;curved&quot;:0,&quot;rounded&quot;:0};" vertex="1" parent="nT646OI-ueqToEDPWVYZ-13">
          <mxGeometry x="45" y="140" width="10" height="40" as="geometry" />
        </mxCell>
        <mxCell id="nT646OI-ueqToEDPWVYZ-43" value="" style="html=1;points=[];perimeter=orthogonalPerimeter;outlineConnect=0;targetShapes=umlLifeline;portConstraint=eastwest;newEdgeStyle={&quot;edgeStyle&quot;:&quot;elbowEdgeStyle&quot;,&quot;elbow&quot;:&quot;vertical&quot;,&quot;curved&quot;:0,&quot;rounded&quot;:0};" vertex="1" parent="nT646OI-ueqToEDPWVYZ-13">
          <mxGeometry x="45" y="340" width="10" height="40" as="geometry" />
        </mxCell>
        <mxCell id="nT646OI-ueqToEDPWVYZ-15" value="&lt;font style=&quot;font-size: 14px;&quot;&gt;&lt;b&gt;Verifier&#39;s SSI Agent&lt;/b&gt;&lt;/font&gt;" style="shape=umlLifeline;perimeter=lifelinePerimeter;whiteSpace=wrap;html=1;container=0;dropTarget=0;collapsible=0;recursiveResize=0;outlineConnect=0;portConstraint=eastwest;newEdgeStyle={&quot;edgeStyle&quot;:&quot;elbowEdgeStyle&quot;,&quot;elbow&quot;:&quot;vertical&quot;,&quot;curved&quot;:0,&quot;rounded&quot;:0};" vertex="1" parent="1">
          <mxGeometry x="160" y="140" width="100" height="420" as="geometry" />
        </mxCell>
        <mxCell id="nT646OI-ueqToEDPWVYZ-16" value="" style="html=1;points=[];perimeter=orthogonalPerimeter;outlineConnect=0;targetShapes=umlLifeline;portConstraint=eastwest;newEdgeStyle={&quot;edgeStyle&quot;:&quot;elbowEdgeStyle&quot;,&quot;elbow&quot;:&quot;vertical&quot;,&quot;curved&quot;:0,&quot;rounded&quot;:0};" vertex="1" parent="nT646OI-ueqToEDPWVYZ-15">
          <mxGeometry x="45" y="180" width="10" height="120" as="geometry" />
        </mxCell>
        <mxCell id="nT646OI-ueqToEDPWVYZ-17" value="&lt;font style=&quot;font-size: 14px;&quot;&gt;&lt;b&gt;Verifier&lt;/b&gt;&lt;/font&gt;" style="shape=umlLifeline;perimeter=lifelinePerimeter;whiteSpace=wrap;html=1;container=0;dropTarget=0;collapsible=0;recursiveResize=0;outlineConnect=0;portConstraint=eastwest;newEdgeStyle={&quot;edgeStyle&quot;:&quot;elbowEdgeStyle&quot;,&quot;elbow&quot;:&quot;vertical&quot;,&quot;curved&quot;:0,&quot;rounded&quot;:0};" vertex="1" parent="1">
          <mxGeometry x="380" y="140" width="100" height="420" as="geometry" />
        </mxCell>
        <mxCell id="nT646OI-ueqToEDPWVYZ-18" value="" style="html=1;points=[];perimeter=orthogonalPerimeter;outlineConnect=0;targetShapes=umlLifeline;portConstraint=eastwest;newEdgeStyle={&quot;edgeStyle&quot;:&quot;elbowEdgeStyle&quot;,&quot;elbow&quot;:&quot;vertical&quot;,&quot;curved&quot;:0,&quot;rounded&quot;:0};" vertex="1" parent="nT646OI-ueqToEDPWVYZ-17">
          <mxGeometry x="45" y="300" width="10" height="40" as="geometry" />
        </mxCell>
        <mxCell id="nT646OI-ueqToEDPWVYZ-35" value="&lt;font style=&quot;font-size: 14px;&quot;&gt;JSON VC&lt;/font&gt;" style="html=1;verticalAlign=bottom;endArrow=block;edgeStyle=elbowEdgeStyle;elbow=vertical;curved=0;rounded=0;" edge="1" parent="1" target="nT646OI-ueqToEDPWVYZ-12">
          <mxGeometry width="80" relative="1" as="geometry">
            <mxPoint x="-440" y="240" as="sourcePoint" />
            <mxPoint x="-360" y="240" as="targetPoint" />
          </mxGeometry>
        </mxCell>
        <mxCell id="nT646OI-ueqToEDPWVYZ-36" value="&lt;font style=&quot;font-size: 14px;&quot;&gt;JSON VC&lt;/font&gt;" style="html=1;verticalAlign=bottom;endArrow=block;edgeStyle=elbowEdgeStyle;elbow=vertical;curved=0;rounded=0;" edge="1" parent="1">
          <mxGeometry width="80" relative="1" as="geometry">
            <mxPoint x="-220" y="280" as="sourcePoint" />
            <mxPoint x="-15" y="280" as="targetPoint" />
          </mxGeometry>
        </mxCell>
        <mxCell id="nT646OI-ueqToEDPWVYZ-37" value="&lt;font style=&quot;font-size: 14px;&quot;&gt;VC Presentation&lt;/font&gt;" style="html=1;verticalAlign=bottom;endArrow=block;edgeStyle=elbowEdgeStyle;elbow=vertical;curved=0;rounded=0;" edge="1" parent="1" target="nT646OI-ueqToEDPWVYZ-16">
          <mxGeometry width="80" relative="1" as="geometry">
            <mxPoint x="-7.5" y="320" as="sourcePoint" />
            <mxPoint x="197.5" y="320" as="targetPoint" />
            <mxPoint as="offset" />
          </mxGeometry>
        </mxCell>
        <mxCell id="nT646OI-ueqToEDPWVYZ-38" value="&lt;font style=&quot;font-size: 14px;&quot;&gt;VC Verification&lt;/font&gt;" style="html=1;verticalAlign=bottom;endArrow=block;edgeStyle=elbowEdgeStyle;elbow=vertical;curved=0;rounded=0;" edge="1" parent="1" source="nT646OI-ueqToEDPWVYZ-16" target="nT646OI-ueqToEDPWVYZ-11">
          <mxGeometry width="80" relative="1" as="geometry">
            <mxPoint x="-7.5" y="370" as="sourcePoint" />
            <mxPoint x="197.5" y="370" as="targetPoint" />
            <Array as="points">
              <mxPoint y="360" />
            </Array>
          </mxGeometry>
        </mxCell>
        <mxCell id="nT646OI-ueqToEDPWVYZ-40" value="&lt;font style=&quot;font-size: 14px;&quot;&gt;Valid!&lt;/font&gt;" style="html=1;verticalAlign=bottom;endArrow=open;dashed=1;endSize=8;edgeStyle=elbowEdgeStyle;elbow=vertical;curved=0;rounded=0;" edge="1" parent="1" source="nT646OI-ueqToEDPWVYZ-12" target="nT646OI-ueqToEDPWVYZ-16">
          <mxGeometry relative="1" as="geometry">
            <mxPoint x="-30" y="480" as="sourcePoint" />
            <mxPoint x="-110" y="480" as="targetPoint" />
            <Array as="points">
              <mxPoint y="400" />
            </Array>
          </mxGeometry>
        </mxCell>
        <mxCell id="nT646OI-ueqToEDPWVYZ-41" value="&lt;font style=&quot;font-size: 14px;&quot;&gt;Valid!&lt;/font&gt;" style="html=1;verticalAlign=bottom;endArrow=block;edgeStyle=elbowEdgeStyle;elbow=vertical;curved=0;rounded=0;" edge="1" parent="1" target="nT646OI-ueqToEDPWVYZ-18">
          <mxGeometry width="80" relative="1" as="geometry">
            <mxPoint x="210" y="440" as="sourcePoint" />
            <mxPoint x="415" y="440" as="targetPoint" />
          </mxGeometry>
        </mxCell>
        <mxCell id="nT646OI-ueqToEDPWVYZ-44" value="&lt;font style=&quot;font-size: 14px;&quot;&gt;&quot;Thank you&quot;&lt;/font&gt;" style="html=1;verticalAlign=bottom;endArrow=block;edgeStyle=elbowEdgeStyle;elbow=vertical;curved=0;rounded=0;" edge="1" parent="1">
          <mxGeometry width="80" relative="1" as="geometry">
            <mxPoint x="425" y="480" as="sourcePoint" />
            <mxPoint x="-10" y="480" as="targetPoint" />
            <Array as="points">
              <mxPoint x="220" y="480" />
            </Array>
          </mxGeometry>
        </mxCell>
      </root>
    </mxGraphModel>
  </diagram>
</mxfile>
